<?xml version="1.0" encoding="UTF-8"?>
<!DOCTYPE svg PUBLIC "-//W3C//DTD SVG 1.1//EN" "http://www.w3.org/Graphics/SVG/1.1/DTD/svg11.dtd">
<svg xmlns="http://www.w3.org/2000/svg" version="1.1" width="549px" height="160px" style="shape-rendering:geometricPrecision; text-rendering:geometricPrecision; image-rendering:optimizeQuality; fill-rule:evenodd; clip-rule:evenodd" xmlns:xlink="http://www.w3.org/1999/xlink">
<g><path style="opacity:1" fill="#0c1211" d="M 228.5,16.5 C 247.637,14.8963 258.637,23.563 261.5,42.5C 259.561,58.2728 250.727,67.2728 235,69.5C 222,68.3464 213.333,61.6797 209,49.5C 206.812,33.1915 213.312,22.1915 228.5,16.5 Z M 231.5,25.5 C 247.034,26.2241 253.201,34.2241 250,49.5C 245.81,58.1765 238.976,61.3432 229.5,59C 217.829,52.5105 215.329,43.3439 222,31.5C 224.551,28.3191 227.718,26.3191 231.5,25.5 Z"/></g>
<g><path style="opacity:1" fill="#0c1211" d="M 409.5,16.5 C 432.644,15.4768 443.477,26.4768 442,49.5C 435.98,64.9277 424.813,71.0944 408.5,68C 393.401,61.7155 387.567,50.5488 391,34.5C 394.441,25.5567 400.608,19.5567 409.5,16.5 Z M 412.5,25.5 C 427.805,25.6414 434.305,33.308 432,48.5C 427.217,58.8782 419.383,62.0449 408.5,58C 402.958,54.5917 399.958,49.5917 399.5,43C 400.3,34.3881 404.633,28.5548 412.5,25.5 Z"/></g>
<g><path style="opacity:1" fill="#0c1211" d="M 492.5,19.5 C 494.722,19.178 496.556,19.8446 498,21.5C 499.316,24.6883 499.816,28.0217 499.5,31.5C 506.468,29.9712 509.135,32.4712 507.5,39C 504.986,40.2525 502.32,40.7525 499.5,40.5C 499.334,45.8437 499.501,51.1771 500,56.5C 501.932,58.0383 504.099,59.205 506.5,60C 509.691,64.054 508.858,66.8873 504,68.5C 496.798,67.9155 492.131,64.2489 490,57.5C 489.501,51.8431 489.334,46.1764 489.5,40.5C 482.98,40.2826 481.313,37.4492 484.5,32C 486.134,31.5065 487.801,31.3398 489.5,31.5C 489.335,28.4816 489.502,25.4816 490,22.5C 490.698,21.3094 491.531,20.3094 492.5,19.5 Z"/></g>
<g><path style="opacity:1" fill="#081e1b" d="M 42.5,10.5 C 39.2692,15.2391 35.4358,19.5724 31,23.5C 27.221,28.7231 24.221,34.3898 22,40.5C 21.6174,39.944 21.1174,39.6107 20.5,39.5C 25.2005,27.733 32.5338,18.0663 42.5,10.5 Z"/></g>
<g><path style="opacity:1" fill="#0c1211" d="M 283.5,30.5 C 298.481,31.4326 305.314,39.4326 304,54.5C 300.181,66.1559 292.347,70.6559 280.5,68C 278.714,67.2155 277.214,66.0488 276,64.5C 275.667,70.5 275.333,76.5 275,82.5C 272.005,85.1981 269.338,84.8648 267,81.5C 266.333,65.5 266.333,49.5 267,33.5C 270.294,30.6888 273.294,31.0221 276,34.5C 278.514,32.9958 281.014,31.6624 283.5,30.5 Z M 281.5,39.5 C 291.462,38.9627 295.628,43.6294 294,53.5C 291.86,59.4872 287.693,61.6539 281.5,60C 275.891,56.7231 274.058,51.8897 276,45.5C 277.36,42.9774 279.193,40.9774 281.5,39.5 Z"/></g>
<g><path style="opacity:1" fill="#0c1211" d="M 324.5,30.5 C 336.156,29.8316 343.156,35.1649 345.5,46.5C 345.954,49.2241 344.954,51.0575 342.5,52C 334.167,52.3333 325.833,52.6667 317.5,53C 320.038,59.3048 324.705,61.6381 331.5,60C 333.87,58.8152 336.203,57.6485 338.5,56.5C 344.701,58.9573 345.034,62.1239 339.5,66C 327.05,71.8501 317.216,69.0168 310,57.5C 306.104,43.6302 310.937,34.6302 324.5,30.5 Z M 323.5,39.5 C 328.757,38.521 333.09,40.021 336.5,44C 330.5,44.6667 324.5,44.6667 318.5,44C 320.063,42.264 321.73,40.764 323.5,39.5 Z"/></g>
<g><path style="opacity:1" fill="#0c1211" d="M 368.5,30.5 C 375.511,30.0849 380.345,33.0849 383,39.5C 384.58,48.4236 384.913,57.4236 384,66.5C 381.253,69.0341 378.587,69.0341 376,66.5C 375.864,58.4385 375.197,50.4385 374,42.5C 370.775,39.1334 367.275,38.8001 363.5,41.5C 362.194,42.9122 361.36,44.5789 361,46.5C 360.667,53.1667 360.333,59.8333 360,66.5C 357.253,69.0341 354.587,69.0341 352,66.5C 351.168,55.152 351.334,43.8187 352.5,32.5C 355.903,30.8135 358.736,31.4801 361,34.5C 363.255,32.5012 365.755,31.1679 368.5,30.5 Z"/></g>
<g><path style="opacity:1" fill="#0c1211" d="M 463.5,30.5 C 471.454,29.8103 477.454,32.8103 481.5,39.5C 480.187,41.8258 478.187,43.1592 475.5,43.5C 472.542,41.7736 469.375,40.4402 466,39.5C 459.736,40.1932 456.569,43.6932 456.5,50C 456.714,56.2142 459.881,59.3809 466,59.5C 469.628,59.3457 472.961,58.3457 476,56.5C 483.02,59.0468 483.187,62.2135 476.5,66C 460.456,72.3088 450.456,66.9755 446.5,50C 447.685,39.395 453.352,32.895 463.5,30.5 Z"/></g>
<g><path style="opacity:1" fill="#0c1211" d="M 548.5,33.5 C 548.5,44.5 548.5,55.5 548.5,66.5C 544.534,69.6069 541.368,68.9402 539,64.5C 530.012,71.1179 521.679,70.1179 514,61.5C 507.529,48.9174 510.363,39.0841 522.5,32C 528.435,29.7387 533.935,30.572 539,34.5C 541.873,30.9559 545.04,30.6225 548.5,33.5 Z M 526.5,39.5 C 536.977,39.1489 541.144,44.1489 539,54.5C 535.608,60.4667 530.774,61.9667 524.5,59C 518.752,51.7533 519.418,45.2533 526.5,39.5 Z"/></g>
<g><path style="opacity:1" fill="#093833" d="M 64.5,-0.5 C 74.1667,-0.5 83.8333,-0.5 93.5,-0.5C 120.115,6.79016 136.115,24.1235 141.5,51.5C 143.734,53.3813 145.067,55.7147 145.5,58.5C 144.859,65.0488 143.693,70.7155 142,75.5C 141.626,76.4162 141.126,77.2496 140.5,78C 138.395,79.1305 136.395,80.2972 134.5,81.5C 139.61,74.6696 141.777,67.0029 141,58.5C 138.97,55.4374 136.136,53.7707 132.5,53.5C 132.897,51.3379 134.231,50.0046 136.5,49.5C 136.376,48.8933 136.043,48.56 135.5,48.5C 132.776,34.7044 125.776,23.7044 114.5,15.5C 104.439,7.76477 92.9392,3.76477 80,3.5C 77.3097,3.50291 74.8097,3.83625 72.5,4.5C 49.543,7.6172 33.7096,19.9505 25,41.5C 24.1785,44.1168 23.6785,46.7835 23.5,49.5C 25.5648,49.4828 27.5648,49.1495 29.5,48.5C 37.1322,47.6423 44.7989,47.3089 52.5,47.5C 55.5,48.1667 58.5,48.8333 61.5,49.5C 57.1318,49.3701 52.7985,49.7035 48.5,50.5C 46.4075,50.5142 44.5741,49.8476 43,48.5C 41.9326,49.1905 40.7659,49.6905 39.5,50C 40.056,50.3826 40.3893,50.8826 40.5,51.5C 34.5377,51.1222 28.8711,52.1222 23.5,54.5C 22.8333,54.5 22.1667,54.5 21.5,54.5C 20.2928,53.8112 18.9594,53.6446 17.5,54C 20.2358,50.1359 21.2358,45.9693 20.5,41.5C 20.5,40.8333 20.5,40.1667 20.5,39.5C 21.1174,39.6107 21.6174,39.944 22,40.5C 24.221,34.3898 27.221,28.7231 31,23.5C 35.4358,19.5724 39.2692,15.2391 42.5,10.5C 43.9616,9.54227 45.2949,8.37561 46.5,7C 52.6861,4.56051 58.6861,2.06051 64.5,-0.5 Z"/></g>
<g><path style="opacity:1" fill="#91e775" d="M 114.5,15.5 C 125.776,23.7044 132.776,34.7044 135.5,48.5C 133.374,49.1032 131.041,49.1032 128.5,48.5C 125.182,36.8715 120.516,25.8715 114.5,15.5 Z"/></g>
<g><path style="opacity:1" fill="#89dd60" d="M 86.5,52.5 C 86.0825,53.2216 85.4158,53.7216 84.5,54C 80.8333,54.6667 77.1667,54.6667 73.5,54C 69.7977,51.6464 65.7977,50.1464 61.5,49.5C 58.5,48.8333 55.5,48.1667 52.5,47.5C 55.5184,47.6646 58.5184,47.498 61.5,47C 63.0609,46.6824 64.2276,45.8491 65,44.5C 68.5189,44.5694 71.5189,46.2361 74,49.5C 75.6095,48.8534 77.1095,48.02 78.5,47C 76.0779,44.9973 75.2446,42.4973 76,39.5C 76.3333,39.8333 76.6667,40.1667 77,40.5C 78.4411,39.7402 79.9411,39.0736 81.5,38.5C 82.5984,40.6317 83.5984,42.7984 84.5,45C 82.6148,47.1637 80.6148,48.4971 78.5,49C 80.674,51.3519 83.3407,52.5186 86.5,52.5 Z"/></g>
<g><path style="opacity:1" fill="#5fbf27" d="M 72.5,4.5 C 69.6351,6.21452 65.9684,7.71452 61.5,9C 59,10.1667 57.1667,12 56,14.5C 54.9505,13.4829 53.7839,13.3162 52.5,14C 51.1341,15.5998 50.1341,17.4332 49.5,19.5C 45.9311,18.861 43.7645,20.5276 43,24.5C 42,24.8333 41,25.1667 40,25.5C 40.5931,30.0719 38.7597,33.0719 34.5,34.5C 32.0393,38.8822 30.3726,43.5489 29.5,48.5C 27.5648,49.1495 25.5648,49.4828 23.5,49.5C 23.6785,46.7835 24.1785,44.1168 25,41.5C 33.7096,19.9505 49.543,7.6172 72.5,4.5 Z"/></g>
<g><path style="opacity:1" fill="#83df57" d="M 72.5,4.5 C 74.8097,3.83625 77.3097,3.50291 80,3.5C 92.9392,3.76477 104.439,7.76477 114.5,15.5C 120.516,25.8715 125.182,36.8715 128.5,48.5C 114.129,46.3076 100.129,47.6409 86.5,52.5C 83.3407,52.5186 80.674,51.3519 78.5,49C 80.6148,48.4971 82.6148,47.1637 84.5,45C 83.5984,42.7984 82.5984,40.6317 81.5,38.5C 79.9411,39.0736 78.4411,39.7402 77,40.5C 76.6667,40.1667 76.3333,39.8333 76,39.5C 75.2446,42.4973 76.0779,44.9973 78.5,47C 77.1095,48.02 75.6095,48.8534 74,49.5C 71.5189,46.2361 68.5189,44.5694 65,44.5C 64.2276,45.8491 63.0609,46.6824 61.5,47C 58.5184,47.498 55.5184,47.6646 52.5,47.5C 44.7989,47.3089 37.1322,47.6423 29.5,48.5C 30.3726,43.5489 32.0393,38.8822 34.5,34.5C 38.7597,33.0719 40.5931,30.0719 40,25.5C 41,25.1667 42,24.8333 43,24.5C 43.7645,20.5276 45.9311,18.861 49.5,19.5C 50.1341,17.4332 51.1341,15.5998 52.5,14C 53.7839,13.3162 54.9505,13.4829 56,14.5C 57.1667,12 59,10.1667 61.5,9C 65.9684,7.71452 69.6351,6.21452 72.5,4.5 Z"/></g>
<g><path style="opacity:1" fill="#dff3ec" d="M 132.5,53.5 C 136.136,53.7707 138.97,55.4374 141,58.5C 141.777,67.0029 139.61,74.6696 134.5,81.5C 134.886,75.6552 134.386,69.6552 133,63.5C 130.436,61.2728 127.603,59.4394 124.5,58C 112.53,54.8863 100.53,54.7196 88.5,57.5C 89.7489,55.8639 91.4156,54.6972 93.5,54C 106.511,50.9704 119.511,50.8037 132.5,53.5 Z"/></g>
<g><path style="opacity:1" fill="#c1f3dc" d="M 21.5,54.5 C 22.1667,54.5 22.8333,54.5 23.5,54.5C 30.6552,55.3288 37.9885,55.8288 45.5,56C 52.4453,56.7273 58.612,59.2273 64,63.5C 65.9398,70.878 65.7731,78.2113 63.5,85.5C 53.3299,90.7929 42.6633,91.7929 31.5,88.5C 23.1862,81.8768 18.5195,73.2101 17.5,62.5C 17.7821,59.2691 19.1154,56.6024 21.5,54.5 Z"/></g>
<g><path style="opacity:1" fill="#e0f5ec" d="M 40.5,51.5 C 49.7599,50.8067 58.7599,51.9734 67.5,55C 68.9308,55.4652 70.0975,56.2986 71,57.5C 72.4453,66.3522 71.1119,74.6856 67,82.5C 65.9609,83.7101 64.7942,84.7101 63.5,85.5C 65.7731,78.2113 65.9398,70.878 64,63.5C 58.612,59.2273 52.4453,56.7273 45.5,56C 37.9885,55.8288 30.6552,55.3288 23.5,54.5C 28.8711,52.1222 34.5377,51.1222 40.5,51.5 Z"/></g>
<g><path style="opacity:1" fill="#0b3d36" d="M 50.5,63.5 C 60.766,63.2615 63.0993,67.4282 57.5,76C 47.1015,76.4715 44.7682,72.3048 50.5,63.5 Z"/></g>
<g><path style="opacity:1" fill="#d7e1dc" d="M 54.5,66.5 C 56.9118,66.6941 57.9118,68.0274 57.5,70.5C 56.1667,70.5 54.8333,70.5 53.5,70.5C 53.4326,69.0413 53.7659,67.7079 54.5,66.5 Z"/></g>
<g><path style="opacity:1" fill="#c3f5de" d="M 134.5,81.5 C 133.167,83.5 131.5,85.1667 129.5,86.5C 117.609,92.2147 105.942,91.7147 94.5,85C 90.055,79.6744 87.555,73.5078 87,66.5C 86.0726,63.1368 86.5726,60.1368 88.5,57.5C 100.53,54.7196 112.53,54.8863 124.5,58C 127.603,59.4394 130.436,61.2728 133,63.5C 134.386,69.6552 134.886,75.6552 134.5,81.5 Z"/></g>
<g><path style="opacity:1" fill="#0f3d39" d="M 101.5,63.5 C 111.818,63.3224 114.151,67.489 108.5,76C 98.1015,76.4715 95.7682,72.3048 101.5,63.5 Z"/></g>
<g><path style="opacity:1" fill="#e3e8e3" d="M 102.5,66.5 C 103.995,66.4148 104.995,67.0815 105.5,68.5C 104.68,70.1112 103.346,70.7778 101.5,70.5C 101.433,69.0413 101.766,67.7079 102.5,66.5 Z"/></g>
<g><path style="opacity:1" fill="#0c3c36" d="M 128.5,48.5 C 131.041,49.1032 133.374,49.1032 135.5,48.5C 136.043,48.56 136.376,48.8933 136.5,49.5C 134.231,50.0046 132.897,51.3379 132.5,53.5C 119.511,50.8037 106.511,50.9704 93.5,54C 91.4156,54.6972 89.7489,55.8639 88.5,57.5C 86.5726,60.1368 86.0726,63.1368 87,66.5C 87.555,73.5078 90.055,79.6744 94.5,85C 105.942,91.7147 117.609,92.2147 129.5,86.5C 131.202,88.8002 131.868,91.4669 131.5,94.5C 130.25,94.5774 129.417,95.244 129,96.5C 128.211,98.7116 128.378,100.712 129.5,102.5C 129.954,105.14 131.121,107.473 133,109.5C 134.067,110.191 135.234,110.691 136.5,111C 141.033,111.284 145.366,110.451 149.5,108.5C 149.714,110.144 149.38,111.644 148.5,113C 144.821,113.787 141.154,114.621 137.5,115.5C 141.343,118.995 145.677,120.662 150.5,120.5C 156.646,123.442 158.146,128.109 155,134.5C 154.184,135.823 153.017,136.489 151.5,136.5C 145.752,136.431 139.919,136.431 134,136.5C 132.057,134.355 129.724,132.688 127,131.5C 126.333,132.167 126.333,132.833 127,133.5C 130.93,135.809 134.43,138.642 137.5,142C 136.473,142.513 135.473,143.013 134.5,143.5C 123.337,136.649 117.004,126.649 115.5,113.5C 116.833,113.5 118.167,113.5 119.5,113.5C 119.366,115.292 119.699,116.958 120.5,118.5C 120.738,122.138 122.404,124.971 125.5,127C 132.767,132.486 140.767,134.152 149.5,132C 151.553,130.322 151.887,128.489 150.5,126.5C 138.73,122.569 130.23,114.902 125,103.5C 124.506,101.866 124.34,100.199 124.5,98.5C 124.877,96.742 125.544,95.0754 126.5,93.5C 126.167,93.1667 125.833,92.8333 125.5,92.5C 115.714,95.3359 106.048,95.0026 96.5,91.5C 86.9167,83.9862 82.4167,73.9862 83,61.5C 80.6194,60.565 78.1194,60.2317 75.5,60.5C 76.4829,71.2151 73.4829,80.5484 66.5,88.5C 57.5054,93.4966 47.8388,95.4966 37.5,94.5C 35.9561,93.086 34.2894,92.7526 32.5,93.5C 34.3512,96.6249 34.8512,99.9583 34,103.5C 28.9708,114.859 20.4708,122.359 8.5,126C 6.74894,129.943 8.08228,132.277 12.5,133C 20.2392,133.633 27.2392,131.633 33.5,127C 35.4641,125.549 36.7974,123.716 37.5,121.5C 39.0109,119.524 39.8442,117.191 40,114.5C 41.0113,113.663 42.1779,113.33 43.5,113.5C 43.5,115.5 43.5,117.5 43.5,119.5C 40.1557,129.508 34.1557,137.508 25.5,143.5C 24.2006,145.153 24.5339,146.653 26.5,148C 33.295,149.273 39.295,147.607 44.5,143C 47.3993,140.271 50.066,137.438 52.5,134.5C 53.1969,136.071 53.5302,137.571 53.5,139C 50.8823,141.106 48.8823,143.606 47.5,146.5C 42.3571,149.661 36.6905,151.661 30.5,152.5C 23.2783,152.12 20.4449,148.454 22,141.5C 26.079,139.425 29.579,136.592 32.5,133C 29.4149,132.542 27.0816,133.709 25.5,136.5C 22.615,135.981 19.615,135.981 16.5,136.5C 13.4083,136.493 10.4083,135.993 7.5,135C 6.21075,133.198 4.54408,132.031 2.5,131.5C 1.1461,125.883 3.1461,122.216 8.5,120.5C 13.5887,120.969 17.922,119.136 21.5,115C 9.87845,114.844 2.54511,109.344 -0.5,98.5C -0.5,97.5 -0.5,96.5 -0.5,95.5C 0.363622,94.3117 1.36362,93.1451 2.5,92C 8.01602,90.8995 13.1827,91.7328 18,94.5C 19.7255,93.536 21.5588,92.8693 23.5,92.5C 24.8275,91.8196 26.4941,91.8196 28.5,92.5C 28.4005,90.8505 29.4005,89.5171 31.5,88.5C 42.6633,91.7929 53.3299,90.7929 63.5,85.5C 64.7942,84.7101 65.9609,83.7101 67,82.5C 71.1119,74.6856 72.4453,66.3522 71,57.5C 70.0975,56.2986 68.9308,55.4652 67.5,55C 58.7599,51.9734 49.7599,50.8067 40.5,51.5C 40.3893,50.8826 40.056,50.3826 39.5,50C 40.7659,49.6905 41.9326,49.1905 43,48.5C 44.5741,49.8476 46.4075,50.5142 48.5,50.5C 52.7985,49.7035 57.1318,49.3701 61.5,49.5C 65.7977,50.1464 69.7977,51.6464 73.5,54C 77.1667,54.6667 80.8333,54.6667 84.5,54C 85.4158,53.7216 86.0825,53.2216 86.5,52.5C 100.129,47.6409 114.129,46.3076 128.5,48.5 Z"/></g>
<g><path style="opacity:1" fill="#83dc5f" d="M 96.5,91.5 C 94.139,91.3259 91.8056,90.9926 89.5,90.5C 89.0723,101.902 83.739,104.902 73.5,99.5C 72.8946,97.5188 71.8946,97.1854 70.5,98.5C 69.8586,96.7045 68.8586,95.2045 67.5,94C 70.1343,90.3263 73.8009,88.3263 78.5,88C 79.8333,87 79.8333,86 78.5,85C 82.8911,82.847 84.3911,79.347 83,74.5C 82.1779,76.7885 81.5112,79.1218 81,81.5C 79.9916,81.9817 78.825,82.1484 77.5,82C 76.8742,82.7504 76.3742,83.5838 76,84.5C 75.2904,83.0267 74.1238,82.3601 72.5,82.5C 71.935,85.8084 69.935,87.8084 66.5,88.5C 73.4829,80.5484 76.4829,71.2151 75.5,60.5C 78.1194,60.2317 80.6194,60.565 83,61.5C 82.4167,73.9862 86.9167,83.9862 96.5,91.5 Z"/></g>
<g><path style="opacity:1" fill="#0a3230" d="M 20.5,41.5 C 21.2358,45.9693 20.2358,50.1359 17.5,54C 18.9594,53.6446 20.2928,53.8112 21.5,54.5C 19.1154,56.6024 17.7821,59.2691 17.5,62.5C 18.5195,73.2101 23.1862,81.8768 31.5,88.5C 29.4005,89.5171 28.4005,90.8505 28.5,92.5C 26.4941,91.8196 24.8275,91.8196 23.5,92.5C 23.9528,91.5416 24.6195,90.7083 25.5,90C 14.8696,80.7755 11.0363,69.2755 14,55.5C 15.0968,53.9474 16.4301,52.614 18,51.5C 18.3106,47.9101 19.144,44.5767 20.5,41.5 Z"/></g>
<g><path style="opacity:1" fill="#83e059" d="M 96.5,91.5 C 106.048,95.0026 115.714,95.3359 125.5,92.5C 125.833,92.8333 126.167,93.1667 126.5,93.5C 125.544,95.0754 124.877,96.742 124.5,98.5C 119.905,100.314 115.238,101.814 110.5,103C 111.451,103.718 111.617,104.551 111,105.5C 109.77,107.02 108.603,107.853 107.5,108C 107.667,108.5 107.833,109 108,109.5C 108.718,108.549 109.551,108.383 110.5,109C 109.672,109.915 108.672,110.581 107.5,111C 110.228,111.639 110.728,112.806 109,114.5C 108.667,114.167 108.333,113.833 108,113.5C 108.311,114.935 108.145,116.268 107.5,117.5C 108.729,118.281 110.062,118.781 111.5,119C 109.731,120.019 108.064,120.186 106.5,119.5C 106.167,119.833 105.833,120.167 105.5,120.5C 108.056,122.328 107.723,123.662 104.5,124.5C 103.662,124.842 103.328,125.508 103.5,126.5C 102.679,123.359 102.179,120.025 102,116.5C 101,115.167 100,115.167 99,116.5C 97.6886,129.055 100.189,140.722 106.5,151.5C 96.2577,150.441 89.7577,144.775 87,134.5C 85.202,129.322 84.202,123.989 84,118.5C 83.6264,116.509 82.793,114.842 81.5,113.5C 80.5967,111.38 79.2633,111.046 77.5,112.5C 76.8333,114.167 76.1667,115.833 75.5,117.5C 75.5654,117.062 75.3988,116.728 75,116.5C 73.6594,119.187 71.9928,120.853 70,121.5C 68.6667,121.5 67.3333,121.5 66,121.5C 65.7489,123.433 65.2489,125.266 64.5,127C 64.9574,127.414 65.2907,127.914 65.5,128.5C 64.4783,129.354 63.6449,130.354 63,131.5C 60.928,124.445 61.428,117.945 64.5,112C 64.5317,110.029 63.6984,108.529 62,107.5C 61.6667,107.833 61.3333,108.167 61,108.5C 59,107.833 57,107.167 55,106.5C 51.6619,109.008 48.4952,111.675 45.5,114.5C 46.9441,115.38 48.4441,116.38 50,117.5C 51.563,116.898 51.3963,116.065 49.5,115C 51.4886,113.382 53.4886,113.549 55.5,115.5C 53.9048,117.452 53.4048,119.452 54,121.5C 52.9916,121.018 51.825,120.852 50.5,121C 49.0869,117.716 47.7536,117.716 46.5,121C 46.6448,121.772 46.9781,122.439 47.5,123C 44.1788,124.872 42.8454,123.705 43.5,119.5C 43.5,117.5 43.5,115.5 43.5,113.5C 42.1779,113.33 41.0113,113.663 40,114.5C 39.8442,117.191 39.0109,119.524 37.5,121.5C 37.44,120.957 37.1067,120.624 36.5,120.5C 32.4455,123.194 28.1122,125.361 23.5,127C 20.6213,127.874 17.9546,127.54 15.5,126C 24.6667,120.833 31.8333,113.667 37,104.5C 37.4983,101.183 37.665,97.8499 37.5,94.5C 47.8388,95.4966 57.5054,93.4966 66.5,88.5C 69.935,87.8084 71.935,85.8084 72.5,82.5C 74.1238,82.3601 75.2904,83.0267 76,84.5C 76.3742,83.5838 76.8742,82.7504 77.5,82C 78.825,82.1484 79.9916,81.9817 81,81.5C 81.5112,79.1218 82.1779,76.7885 83,74.5C 84.3911,79.347 82.8911,82.847 78.5,85C 79.8333,86 79.8333,87 78.5,88C 73.8009,88.3263 70.1343,90.3263 67.5,94C 68.8586,95.2045 69.8586,96.7045 70.5,98.5C 71.8946,97.1854 72.8946,97.5188 73.5,99.5C 83.739,104.902 89.0723,101.902 89.5,90.5C 91.8056,90.9926 94.139,91.3259 96.5,91.5 Z"/></g>
<g><path style="opacity:1" fill="#082f2c" d="M 145.5,58.5 C 147.248,71.1732 143.248,81.6732 133.5,90C 135.748,91.9137 138.248,93.4137 141,94.5C 157.137,87.3117 162.471,91.9783 157,108.5C 152.831,112.5 147.997,115.333 142.5,117C 145.309,118.093 147.976,119.26 150.5,120.5C 145.677,120.662 141.343,118.995 137.5,115.5C 141.154,114.621 144.821,113.787 148.5,113C 149.38,111.644 149.714,110.144 149.5,108.5C 151.47,106.353 153.303,104.02 155,101.5C 155.579,100.072 155.412,98.7382 154.5,97.5C 154.038,96.1201 153.038,95.4534 151.5,95.5C 146.582,99.1998 141.249,100.033 135.5,98C 133.907,97.0513 132.574,95.8846 131.5,94.5C 131.868,91.4669 131.202,88.8002 129.5,86.5C 131.5,85.1667 133.167,83.5 134.5,81.5C 136.395,80.2972 138.395,79.1305 140.5,78C 141.126,77.2496 141.626,76.4162 142,75.5C 143.693,70.7155 144.859,65.0488 145.5,58.5 Z"/></g>
<g><path style="opacity:1" fill="#144338" d="M 71.5,91.5 C 74.4883,92.4378 77.3216,93.7711 80,95.5C 82.6784,93.7711 85.5117,92.4378 88.5,91.5C 86.6276,99.2669 81.9609,101.434 74.5,98C 72.5494,96.2658 71.5494,94.0991 71.5,91.5 Z"/></g>
<g><path style="opacity:1" fill="#0c1211" d="M 331.5,95.5 C 333.665,95.1159 335.332,95.7826 336.5,97.5C 345.482,98.332 354.482,98.832 363.5,99C 367.29,101.503 367.29,104.17 363.5,107C 366.308,107.598 368.808,108.765 371,110.5C 371.667,118.5 371.667,126.5 371,134.5C 370.167,135.333 369.333,136.167 368.5,137C 355.167,137.667 341.833,137.667 328.5,137C 327.667,136.167 326.833,135.333 326,134.5C 325.333,126.5 325.333,118.5 326,110.5C 326.5,110 327,109.5 327.5,109C 336.921,108.057 346.255,107.057 355.5,106C 347.756,105.897 340.089,105.231 332.5,104C 329.21,101.362 328.877,98.529 331.5,95.5 Z M 332.5,115.5 C 336.5,115.5 340.5,115.5 344.5,115.5C 344.5,116.833 344.5,118.167 344.5,119.5C 340.5,119.5 336.5,119.5 332.5,119.5C 332.5,118.167 332.5,116.833 332.5,115.5 Z M 352.5,115.5 C 356.5,115.5 360.5,115.5 364.5,115.5C 364.5,116.833 364.5,118.167 364.5,119.5C 360.5,119.5 356.5,119.5 352.5,119.5C 352.5,118.167 352.5,116.833 352.5,115.5 Z M 332.5,126.5 C 336.5,126.5 340.5,126.5 344.5,126.5C 344.5,127.833 344.5,129.167 344.5,130.5C 340.5,130.5 336.5,130.5 332.5,130.5C 332.5,129.167 332.5,127.833 332.5,126.5 Z M 352.5,126.5 C 356.5,126.5 360.5,126.5 364.5,126.5C 364.5,127.833 364.5,129.167 364.5,130.5C 360.5,130.5 356.5,130.5 352.5,130.5C 352.5,129.167 352.5,127.833 352.5,126.5 Z"/></g>
<g><path style="opacity:1" fill="#8bde61" d="M 131.5,94.5 C 132.574,95.8846 133.907,97.0513 135.5,98C 141.249,100.033 146.582,99.1998 151.5,95.5C 153.038,95.4534 154.038,96.1201 154.5,97.5C 147.66,106.13 139.327,107.796 129.5,102.5C 128.378,100.712 128.211,98.7116 129,96.5C 129.417,95.244 130.25,94.5774 131.5,94.5 Z"/></g>
<g><path style="opacity:1" fill="#0c1211" d="M 307.5,96.5 C 312.501,95.6714 314.668,97.6714 314,102.5C 313.25,103.126 312.416,103.626 311.5,104C 300.544,105.319 289.544,105.819 278.5,105.5C 279.354,119.676 277.187,133.343 272,146.5C 268.736,149.304 266.236,148.637 264.5,144.5C 267.239,138.783 269.072,132.783 270,126.5C 270.058,117.732 270.725,109.065 272,100.5C 273.171,99.1068 274.671,98.2735 276.5,98C 287.008,97.8303 297.341,97.3303 307.5,96.5 Z"/></g>
<g><path style="opacity:1" fill="#0d1211" d="M 221.5,97.5 C 223.722,97.178 225.556,97.8446 227,99.5C 226.612,116.05 222.612,131.716 215,146.5C 211.76,148.827 209.26,147.994 207.5,144C 214.695,130.057 218.862,115.223 220,99.5C 220.717,98.9558 221.217,98.2891 221.5,97.5 Z"/></g>
<g><path style="opacity:1" fill="#0c1211" d="M 243.5,97.5 C 245.144,97.2865 246.644,97.6198 248,98.5C 249.286,114.478 253.452,129.645 260.5,144C 259.68,146.154 258.18,147.654 256,148.5C 249.886,140.509 245.886,131.509 244,121.5C 242.733,115.895 241.899,110.229 241.5,104.5C 241.643,101.887 242.31,99.5533 243.5,97.5 Z"/></g>
<g><path style="opacity:1" fill="#8bdf5e" d="M 29.5,103.5 C 29.5654,103.062 29.3988,102.728 29,102.5C 23.498,105.866 17.6647,106.366 11.5,104C 8.96727,102.967 7.3006,101.133 6.5,98.5C 7.00475,97.0815 8.00475,96.4148 9.5,96.5C 16.2905,100.76 22.6238,100.093 28.5,94.5C 29.086,94.7093 29.586,95.0426 30,95.5C 30.8007,98.367 30.6341,101.034 29.5,103.5 Z"/></g>
<g><path style="opacity:1" fill="#67c12f" d="M 9.5,96.5 C 8.00475,96.4148 7.00475,97.0815 6.5,98.5C 7.3006,101.133 8.96727,102.967 11.5,104C 17.6647,106.366 23.498,105.866 29,102.5C 29.3988,102.728 29.5654,103.062 29.5,103.5C 28.3384,108.492 25.1717,111.158 20,111.5C 12.1696,111.002 6.66964,107.169 3.5,100C 4.10679,95.886 6.10679,94.7194 9.5,96.5 Z"/></g>
<g><path style="opacity:1" fill="#6ac331" d="M 154.5,97.5 C 155.412,98.7382 155.579,100.072 155,101.5C 153.303,104.02 151.47,106.353 149.5,108.5C 145.366,110.451 141.033,111.284 136.5,111C 135.234,110.691 134.067,110.191 133,109.5C 131.121,107.473 129.954,105.14 129.5,102.5C 139.327,107.796 147.66,106.13 154.5,97.5 Z"/></g>
<g><path style="opacity:1" fill="#081c1b" d="M -0.5,98.5 C 2.54511,109.344 9.87845,114.844 21.5,115C 17.922,119.136 13.5887,120.969 8.5,120.5C 11.024,119.26 13.6907,118.093 16.5,117C 12.5,115 8.5,113 4.5,111C 2.44965,109.035 0.782988,106.868 -0.5,104.5C -0.5,102.5 -0.5,100.5 -0.5,98.5 Z"/></g>
<g><path style="opacity:1" fill="#0c1211" d="M 288.5,109.5 C 291.547,108.855 293.713,109.855 295,112.5C 295.667,123.5 295.667,134.5 295,145.5C 293.097,148.955 290.763,149.288 288,146.5C 287.188,134.091 287.355,121.758 288.5,109.5 Z"/></g>
<g><path style="opacity:1" fill="#0c1211" d="M 305.5,109.5 C 308.547,108.855 310.713,109.855 312,112.5C 311.523,123.421 313.357,133.921 317.5,144C 315.346,149.495 312.846,149.661 310,144.5C 305.171,133.205 303.671,121.539 305.5,109.5 Z"/></g>
<g><path style="opacity:1" fill="#85de5c" d="M 75.5,117.5 C 75.1663,126.842 72.6663,135.508 68,143.5C 64.5336,149.815 59.3669,152.148 52.5,150.5C 52.5,150.167 52.5,149.833 52.5,149.5C 55.9738,145.547 58.1405,140.88 59,135.5C 60.0523,128.872 60.5523,122.206 60.5,115.5C 59.1779,115.33 58.0113,115.663 57,116.5C 56.8213,120.025 56.3213,123.359 55.5,126.5C 51.7655,130.751 47.4322,135.251 42.5,140C 37.3619,144.178 31.6952,145.345 25.5,143.5C 34.1557,137.508 40.1557,129.508 43.5,119.5C 42.8454,123.705 44.1788,124.872 47.5,123C 46.9781,122.439 46.6448,121.772 46.5,121C 47.7536,117.716 49.0869,117.716 50.5,121C 51.825,120.852 52.9916,121.018 54,121.5C 53.4048,119.452 53.9048,117.452 55.5,115.5C 53.4886,113.549 51.4886,113.382 49.5,115C 51.3963,116.065 51.563,116.898 50,117.5C 48.4441,116.38 46.9441,115.38 45.5,114.5C 48.4952,111.675 51.6619,109.008 55,106.5C 57,107.167 59,107.833 61,108.5C 61.3333,108.167 61.6667,107.833 62,107.5C 63.6984,108.529 64.5317,110.029 64.5,112C 61.428,117.945 60.928,124.445 63,131.5C 63.6449,130.354 64.4783,129.354 65.5,128.5C 65.2907,127.914 64.9574,127.414 64.5,127C 65.2489,125.266 65.7489,123.433 66,121.5C 67.3333,121.5 68.6667,121.5 70,121.5C 71.9928,120.853 73.6594,119.187 75,116.5C 75.3988,116.728 75.5654,117.062 75.5,117.5 Z"/></g>
<g><path style="opacity:1" fill="#063933" d="M 81.5,113.5 C 81.2601,125.136 83.7601,136.136 89,146.5C 92.3834,151.56 97.0501,154.56 103,155.5C 105.074,154.928 106.24,153.595 106.5,151.5C 100.189,140.722 97.6886,129.055 99,116.5C 100,115.167 101,115.167 102,116.5C 102.179,120.025 102.679,123.359 103.5,126.5C 106.849,136.684 113.515,143.851 123.5,148C 126.5,148.667 129.5,148.667 132.5,148C 133.056,147.617 133.389,147.117 133.5,146.5C 133.833,146.5 134.167,146.5 134.5,146.5C 134.163,149.833 132.496,150.833 129.5,149.5C 127.043,151.225 124.377,151.725 121.5,151C 114.521,148.359 109.021,143.859 105,137.5C 105.166,142.519 107.332,146.519 111.5,149.5C 113.016,153.821 111.683,157.155 107.5,159.5C 104.167,159.5 100.833,159.5 97.5,159.5C 97.5,159.167 97.5,158.833 97.5,158.5C 87.8771,152.745 82.0438,143.745 80,131.5C 78.8097,134.921 76.9764,137.921 74.5,140.5C 75.7252,144.718 74.2252,147.718 70,149.5C 69.6174,148.944 69.1174,148.611 68.5,148.5C 75.243,137.528 78.243,125.528 77.5,112.5C 79.2633,111.046 80.5967,111.38 81.5,113.5 Z"/></g>
<g><path style="opacity:1" fill="#85df5e" d="M 124.5,98.5 C 124.34,100.199 124.506,101.866 125,103.5C 130.23,114.902 138.73,122.569 150.5,126.5C 139.035,129.135 129.035,126.468 120.5,118.5C 119.699,116.958 119.366,115.292 119.5,113.5C 118.167,113.5 116.833,113.5 115.5,113.5C 117.004,126.649 123.337,136.649 134.5,143.5C 134.5,144.5 134.5,145.5 134.5,146.5C 134.167,146.5 133.833,146.5 133.5,146.5C 119.926,144.625 110.26,137.291 104.5,124.5C 107.723,123.662 108.056,122.328 105.5,120.5C 105.833,120.167 106.167,119.833 106.5,119.5C 108.064,120.186 109.731,120.019 111.5,119C 110.062,118.781 108.729,118.281 107.5,117.5C 108.145,116.268 108.311,114.935 108,113.5C 108.333,113.833 108.667,114.167 109,114.5C 110.728,112.806 110.228,111.639 107.5,111C 108.672,110.581 109.672,109.915 110.5,109C 109.551,108.383 108.718,108.549 108,109.5C 107.833,109 107.667,108.5 107.5,108C 108.603,107.853 109.77,107.02 111,105.5C 111.617,104.551 111.451,103.718 110.5,103C 115.238,101.814 119.905,100.314 124.5,98.5 Z"/></g>
<g><path style="opacity:1" fill="#6bc433" d="M 120.5,118.5 C 129.035,126.468 139.035,129.135 150.5,126.5C 151.887,128.489 151.553,130.322 149.5,132C 140.767,134.152 132.767,132.486 125.5,127C 122.404,124.971 120.738,122.138 120.5,118.5 Z"/></g>
<g><path style="opacity:1" fill="#6ac630" d="M 37.5,94.5 C 37.665,97.8499 37.4983,101.183 37,104.5C 31.8333,113.667 24.6667,120.833 15.5,126C 17.9546,127.54 20.6213,127.874 23.5,127C 28.1122,125.361 32.4455,123.194 36.5,120.5C 37.1067,120.624 37.44,120.957 37.5,121.5C 36.7974,123.716 35.4641,125.549 33.5,127C 27.2392,131.633 20.2392,133.633 12.5,133C 8.08228,132.277 6.74894,129.943 8.5,126C 20.4708,122.359 28.9708,114.859 34,103.5C 34.8512,99.9583 34.3512,96.6249 32.5,93.5C 34.2894,92.7526 35.9561,93.086 37.5,94.5 Z"/></g>
<g><path style="opacity:1" fill="#0d3d33" d="M 52.5,149.5 C 52.67,148.178 52.3366,147.011 51.5,146C 54.7909,143.565 56.4576,140.232 56.5,136C 56.2849,134.092 55.2849,132.926 53.5,132.5C 54.7298,130.703 55.3964,128.703 55.5,126.5C 56.3213,123.359 56.8213,120.025 57,116.5C 58.0113,115.663 59.1779,115.33 60.5,115.5C 60.5523,122.206 60.0523,128.872 59,135.5C 58.1405,140.88 55.9738,145.547 52.5,149.5 Z"/></g>
<g><path style="opacity:1" fill="#65c434" d="M 77.5,112.5 C 78.243,125.528 75.243,137.528 68.5,148.5C 67.5987,149.29 66.9321,150.29 66.5,151.5C 62.5914,154.201 58.2581,155.034 53.5,154C 52.6634,152.989 52.33,151.822 52.5,150.5C 59.3669,152.148 64.5336,149.815 68,143.5C 72.6663,135.508 75.1663,126.842 75.5,117.5C 76.1667,115.833 76.8333,114.167 77.5,112.5 Z"/></g>
<g><path style="opacity:1" fill="#69c430" d="M 55.5,126.5 C 55.3964,128.703 54.7298,130.703 53.5,132.5C 53.1667,133.167 52.8333,133.833 52.5,134.5C 50.066,137.438 47.3993,140.271 44.5,143C 39.295,147.607 33.295,149.273 26.5,148C 24.5339,146.653 24.2006,145.153 25.5,143.5C 31.6952,145.345 37.3619,144.178 42.5,140C 47.4322,135.251 51.7655,130.751 55.5,126.5 Z"/></g>
<g><path style="opacity:1" fill="#68c32e" d="M 104.5,124.5 C 110.26,137.291 119.926,144.625 133.5,146.5C 133.389,147.117 133.056,147.617 132.5,148C 129.5,148.667 126.5,148.667 123.5,148C 113.515,143.851 106.849,136.684 103.5,126.5C 103.328,125.508 103.662,124.842 104.5,124.5 Z"/></g>
<g><path style="opacity:1" fill="#0c1211" d="M 324.5,140.5 C 340.837,140.333 357.17,140.5 373.5,141C 374.833,143 374.833,145 373.5,147C 356.833,147.667 340.167,147.667 323.5,147C 322.091,144.536 322.424,142.369 324.5,140.5 Z"/></g>
<g><path style="opacity:1" fill="#072321" d="M 151.5,136.5 C 148.949,137.845 146.116,138.511 143,138.5C 140.765,138.175 138.598,138.008 136.5,138C 141.69,145.564 140.024,150.897 131.5,154C 124.453,153.773 117.953,151.606 112,147.5C 111.536,148.094 111.369,148.761 111.5,149.5C 107.332,146.519 105.166,142.519 105,137.5C 109.021,143.859 114.521,148.359 121.5,151C 124.377,151.725 127.043,151.225 129.5,149.5C 132.496,150.833 134.163,149.833 134.5,146.5C 134.5,145.5 134.5,144.5 134.5,143.5C 135.473,143.013 136.473,142.513 137.5,142C 134.43,138.642 130.93,135.809 127,133.5C 126.333,132.833 126.333,132.167 127,131.5C 129.724,132.688 132.057,134.355 134,136.5C 139.919,136.431 145.752,136.431 151.5,136.5 Z"/></g>
<g><path style="opacity:1" fill="#082625" d="M 97.5,158.5 C 94.2307,158.116 91.3974,156.782 89,154.5C 84.1678,149.837 81.1678,144.17 80,137.5C 78.1529,141.853 76.1529,146.186 74,150.5C 71.6142,151.763 69.7808,153.597 68.5,156C 66.0748,157.213 63.7415,158.379 61.5,159.5C 58.1667,159.5 54.8333,159.5 51.5,159.5C 49.3838,158.058 47.8838,156.058 47,153.5C 46.2438,151.191 46.7438,149.191 48.5,147.5C 48.3764,146.893 48.0431,146.56 47.5,146.5C 48.8823,143.606 50.8823,141.106 53.5,139C 53.5302,137.571 53.1969,136.071 52.5,134.5C 52.8333,133.833 53.1667,133.167 53.5,132.5C 55.2849,132.926 56.2849,134.092 56.5,136C 56.4576,140.232 54.7909,143.565 51.5,146C 52.3366,147.011 52.67,148.178 52.5,149.5C 51.3569,149.908 50.3569,150.575 49.5,151.5C 49.403,153.834 50.403,156 52.5,158C 59.301,159.919 63.9677,157.752 66.5,151.5C 66.9321,150.29 67.5987,149.29 68.5,148.5C 69.1174,148.611 69.6174,148.944 70,149.5C 74.2252,147.718 75.7252,144.718 74.5,140.5C 76.9764,137.921 78.8097,134.921 80,131.5C 82.0438,143.745 87.8771,152.745 97.5,158.5 Z"/></g>
<g><path style="opacity:1" fill="#081c1b" d="M 2.5,131.5 C 4.54408,132.031 6.21075,133.198 7.5,135C 10.4083,135.993 13.4083,136.493 16.5,136.5C 19.615,135.981 22.615,135.981 25.5,136.5C 27.0816,133.709 29.4149,132.542 32.5,133C 29.579,136.592 26.079,139.425 22,141.5C 20.4449,148.454 23.2783,152.12 30.5,152.5C 36.6905,151.661 42.3571,149.661 47.5,146.5C 46.1064,148.708 44.1064,150.208 41.5,151C 36.8591,152.74 32.1924,153.74 27.5,154C 19.7955,151.753 17.6289,146.919 21,139.5C 21.7504,138.874 22.5838,138.374 23.5,138C 18.1432,138.926 12.8098,138.593 7.5,137C 5.26106,135.69 3.5944,133.857 2.5,131.5 Z"/></g>
<g><path style="opacity:1" fill="#62bb2e" d="M 81.5,113.5 C 82.793,114.842 83.6264,116.509 84,118.5C 84.202,123.989 85.202,129.322 87,134.5C 89.7577,144.775 96.2577,150.441 106.5,151.5C 106.24,153.595 105.074,154.928 103,155.5C 97.0501,154.56 92.3834,151.56 89,146.5C 83.7601,136.136 81.2601,125.136 81.5,113.5 Z"/></g>
<g><path style="opacity:1" fill="#073c34" d="M 52.5,149.5 C 52.5,149.833 52.5,150.167 52.5,150.5C 52.33,151.822 52.6634,152.989 53.5,154C 58.2581,155.034 62.5914,154.201 66.5,151.5C 63.9677,157.752 59.301,159.919 52.5,158C 50.403,156 49.403,153.834 49.5,151.5C 50.3569,150.575 51.3569,149.908 52.5,149.5 Z"/></g>
</svg>
