<?xml version="1.0" encoding="UTF-8"?>
<!DOCTYPE svg PUBLIC "-//W3C//DTD SVG 1.1//EN" "http://www.w3.org/Graphics/SVG/1.1/DTD/svg11.dtd">
<svg xmlns="http://www.w3.org/2000/svg" version="1.1" width="305px" height="305px" style="shape-rendering:geometricPrecision; text-rendering:geometricPrecision; image-rendering:optimizeQuality; fill-rule:evenodd; clip-rule:evenodd" xmlns:xlink="http://www.w3.org/1999/xlink">
<g><path style="opacity:1" fill="#08332f" d="M 216.5,164.5 C 216.565,164.938 216.399,165.272 216,165.5C 214.027,164.36 212.193,163.027 210.5,161.5C 214.596,160.643 218.596,159.476 222.5,158C 223.464,156.275 224.131,154.441 224.5,152.5C 226.278,150.171 227.278,147.504 227.5,144.5C 226.809,142.978 225.642,141.978 224,141.5C 221.44,142.53 218.94,143.697 216.5,145C 211.512,146.002 207.512,144.502 204.5,140.5C 205.043,140.44 205.376,140.107 205.5,139.5C 204.833,138.833 204.167,138.167 203.5,137.5C 204.423,135.076 205.923,133.076 208,131.5C 208.765,129.934 208.598,128.601 207.5,127.5C 212.69,119.759 214.19,111.425 212,102.5C 210.007,101.086 207.84,100.086 205.5,99.5C 205.389,98.8826 205.056,98.3826 204.5,98C 207.854,97.1208 208.854,95.2875 207.5,92.5C 204.099,80.0244 197.432,69.691 187.5,61.5C 172.275,50.6613 155.608,47.3279 137.5,51.5C 118.999,56.4921 105.832,67.8255 98,85.5C 96.2919,89.2309 95.7919,92.8976 96.5,96.5C 98.861,96.6741 101.194,97.0074 103.5,97.5C 100.386,98.9558 97.0523,100.122 93.5,101C 92.1772,101.816 91.5106,102.983 91.5,104.5C 90.6618,104.842 90.3284,105.508 90.5,106.5C 87.5057,112.837 88.0057,119.504 92,126.5C 92.414,126.043 92.914,125.709 93.5,125.5C 96.5037,128.864 98.5037,132.364 99.5,136C 99.2517,137.749 98.2517,138.582 96.5,138.5C 96.9528,137.542 97.6195,136.708 98.5,136C 88.6198,127.359 84.4532,116.526 86,103.5C 86.6237,101.246 87.957,99.5794 90,98.5C 97.0243,64.8076 117.691,46.8076 152,44.5C 186.273,46.9583 206.94,64.9583 214,98.5C 218.301,102.967 219.635,108.3 218,114.5C 216.407,122.357 212.74,129.023 207,134.5C 206.333,135.5 206.333,136.5 207,137.5C 211.295,141.323 215.795,141.489 220.5,138C 231.032,136.874 234.532,141.374 231,151.5C 226.951,157.866 221.117,161.366 213.5,162C 214.571,162.852 215.571,163.685 216.5,164.5 Z"/></g>
<g><path style="opacity:1" fill="#92e777" d="M 187.5,61.5 C 197.432,69.691 204.099,80.0244 207.5,92.5C 207.5,93.5 207.5,94.5 207.5,95.5C 203.007,95.0242 198.673,94.3576 194.5,93.5C 196.5,93.5 198.5,93.5 200.5,93.5C 197.261,82.3601 192.928,71.6934 187.5,61.5 Z"/></g>
<g><path style="opacity:1" fill="#83df59" d="M 115.5,68.5 C 116.434,69.5676 116.768,70.901 116.5,72.5C 118.604,72.7989 120.604,72.4656 122.5,71.5C 121.121,70.1374 121.287,69.1374 123,68.5C 124.872,69.0682 126.705,69.7349 128.5,70.5C 129.478,70.0233 130.311,69.3567 131,68.5C 131.638,69.6086 132.138,70.7753 132.5,72C 126.345,78.6888 127.511,80.1888 136,76.5C 138.016,80.6563 140.183,80.9897 142.5,77.5C 143.681,78.5145 144.681,79.6812 145.5,81C 145.095,81.9454 144.428,82.6121 143.5,83C 145.108,83.658 146.275,83.158 147,81.5C 148.655,81.8024 149.988,83.1358 151,85.5C 151.667,82.8333 152.333,82.8333 153,85.5C 154.828,83.1927 156.494,83.526 158,86.5C 158.749,85.365 158.583,84.365 157.5,83.5C 156.069,83.0234 154.736,82.3567 153.5,81.5C 152.978,79.1631 151.645,76.8297 149.5,74.5C 150.275,72.5247 151.609,71.6913 153.5,72C 155.02,73.8847 156.02,76.0514 156.5,78.5C 154.252,79.324 154.086,80.324 156,81.5C 156.414,81.0426 156.914,80.7093 157.5,80.5C 158.5,81.5 159.5,82.5 160.5,83.5C 159.167,84.5 159.167,85.5 160.5,86.5C 159.975,87.1924 159.308,87.6924 158.5,88C 158.057,89.5185 158.724,90.6852 160.5,91.5C 159.833,92.8333 159.167,94.1667 158.5,95.5C 159.905,95.76 161.238,96.0934 162.5,96.5C 159.148,99.3483 155.148,100.682 150.5,100.5C 143.057,97.8566 135.391,95.6899 127.5,94C 118.814,93.3677 110.148,93.5344 101.5,94.5C 102.907,89.3661 104.574,84.3661 106.5,79.5C 108.144,79.7135 109.644,79.3802 111,78.5C 111.333,76.5 111.667,74.5 112,72.5C 113.388,71.2642 114.554,69.9308 115.5,68.5 Z"/></g>
<g><path style="opacity:1" fill="#5fbe27" d="M 137.5,51.5 C 138.873,51.3433 140.207,51.51 141.5,52C 138.167,53.3333 134.833,54.6667 131.5,56C 130.228,57.3068 129.228,58.8068 128.5,60.5C 127.232,59.5721 125.899,59.4054 124.5,60C 123.685,61.943 122.685,63.943 121.5,66C 120.216,66.6838 119.049,66.5171 118,65.5C 116.955,66.3734 116.122,67.3734 115.5,68.5C 114.554,69.9308 113.388,71.2642 112,72.5C 111.667,74.5 111.333,76.5 111,78.5C 109.644,79.3802 108.144,79.7135 106.5,79.5C 104.574,84.3661 102.907,89.3661 101.5,94.5C 99.4471,94.4021 97.7804,95.0687 96.5,96.5C 95.7919,92.8976 96.2919,89.2309 98,85.5C 105.832,67.8255 118.999,56.4921 137.5,51.5 Z"/></g>
<g><path style="opacity:1" fill="#83e057" d="M 187.5,61.5 C 192.928,71.6934 197.261,82.3601 200.5,93.5C 198.5,93.5 196.5,93.5 194.5,93.5C 183.675,93.0266 173.008,94.0266 162.5,96.5C 161.238,96.0934 159.905,95.76 158.5,95.5C 159.167,94.1667 159.833,92.8333 160.5,91.5C 158.724,90.6852 158.057,89.5185 158.5,88C 159.308,87.6924 159.975,87.1924 160.5,86.5C 159.167,85.5 159.167,84.5 160.5,83.5C 159.5,82.5 158.5,81.5 157.5,80.5C 156.914,80.7093 156.414,81.0426 156,81.5C 154.086,80.324 154.252,79.324 156.5,78.5C 156.02,76.0514 155.02,73.8847 153.5,72C 151.609,71.6913 150.275,72.5247 149.5,74.5C 151.645,76.8297 152.978,79.1631 153.5,81.5C 154.736,82.3567 156.069,83.0234 157.5,83.5C 158.583,84.365 158.749,85.365 158,86.5C 156.494,83.526 154.828,83.1927 153,85.5C 152.333,82.8333 151.667,82.8333 151,85.5C 149.988,83.1358 148.655,81.8024 147,81.5C 146.275,83.158 145.108,83.658 143.5,83C 144.428,82.6121 145.095,81.9454 145.5,81C 144.681,79.6812 143.681,78.5145 142.5,77.5C 140.183,80.9897 138.016,80.6563 136,76.5C 127.511,80.1888 126.345,78.6888 132.5,72C 132.138,70.7753 131.638,69.6086 131,68.5C 130.311,69.3567 129.478,70.0233 128.5,70.5C 126.705,69.7349 124.872,69.0682 123,68.5C 121.287,69.1374 121.121,70.1374 122.5,71.5C 120.604,72.4656 118.604,72.7989 116.5,72.5C 116.768,70.901 116.434,69.5676 115.5,68.5C 116.122,67.3734 116.955,66.3734 118,65.5C 119.049,66.5171 120.216,66.6838 121.5,66C 122.685,63.943 123.685,61.943 124.5,60C 125.899,59.4054 127.232,59.5721 128.5,60.5C 129.228,58.8068 130.228,57.3068 131.5,56C 134.833,54.6667 138.167,53.3333 141.5,52C 140.207,51.51 138.873,51.3433 137.5,51.5C 155.608,47.3279 172.275,50.6613 187.5,61.5 Z"/></g>
<g><path style="opacity:1" fill="#0e3f37" d="M 207.5,92.5 C 208.854,95.2875 207.854,97.1208 204.5,98C 205.056,98.3826 205.389,98.8826 205.5,99.5C 192.169,96.7681 178.836,96.9348 165.5,100C 164.058,100.377 163.058,101.21 162.5,102.5C 161.25,102.577 160.417,103.244 160,104.5C 158.65,112.627 159.983,120.294 164,127.5C 167.25,132.159 171.75,134.992 177.5,136C 185.857,137.375 193.857,136.375 201.5,133C 203.373,131.296 205.04,129.463 206.5,127.5C 206.833,127.5 207.167,127.5 207.5,127.5C 208.598,128.601 208.765,129.934 208,131.5C 205.923,133.076 204.423,135.076 203.5,137.5C 204.167,138.167 204.833,138.833 205.5,139.5C 205.376,140.107 205.043,140.44 204.5,140.5C 202.983,140.511 201.816,141.177 201,142.5C 200.297,145.482 200.797,148.149 202.5,150.5C 205.89,157.459 211.223,159.293 218.5,156C 220.692,155.074 222.692,153.907 224.5,152.5C 224.131,154.441 223.464,156.275 222.5,158C 218.596,159.476 214.596,160.643 210.5,161.5C 212.193,163.027 214.027,164.36 216,165.5C 216.399,165.272 216.565,164.938 216.5,164.5C 220.887,165.461 224.721,167.461 228,170.5C 229.691,177.815 226.858,182.315 219.5,184C 214.712,184.482 210.045,184.148 205.5,183C 211.408,185.932 212.741,190.099 209.5,195.5C 204.951,198.482 200.285,198.815 195.5,196.5C 194.873,195.583 194.539,194.583 194.5,193.5C 197.779,194.492 201.112,194.659 204.5,194C 205.973,193.29 206.64,192.124 206.5,190.5C 200.795,185.796 195.795,180.463 191.5,174.5C 190.034,170.396 188.701,166.229 187.5,162C 188.032,159.98 189.365,159.147 191.5,159.5C 191.721,162.067 192.388,164.401 193.5,166.5C 193.393,168.903 194.393,170.736 196.5,172C 202.958,177.236 210.291,179.57 218.5,179C 221.249,178.636 223.249,177.303 224.5,175C 224.361,173.699 223.695,172.866 222.5,172.5C 212.693,168.671 204.86,162.337 199,153.5C 197.659,150.978 196.826,148.311 196.5,145.5C 197.086,143.16 198.086,140.993 199.5,139C 187.705,142.029 176.372,140.696 165.5,135C 157.967,127.064 154.634,117.564 155.5,106.5C 153.167,106.5 150.833,106.5 148.5,106.5C 148.5,107.5 148.5,108.5 148.5,109.5C 148.491,127.934 139.491,138.267 121.5,140.5C 121.389,139.883 121.056,139.383 120.5,139C 121.571,138.148 122.571,137.315 123.5,136.5C 127.901,135.594 131.901,133.928 135.5,131.5C 138.994,129.5 141.16,126.5 142,122.5C 143.976,116.627 144.643,110.627 144,104.5C 139.828,100.993 134.994,98.8259 129.5,98C 120.84,97.5002 112.173,97.3336 103.5,97.5C 101.194,97.0074 98.861,96.6741 96.5,96.5C 97.7804,95.0687 99.4471,94.4021 101.5,94.5C 110.148,93.5344 118.814,93.3677 127.5,94C 135.391,95.6899 143.057,97.8566 150.5,100.5C 155.148,100.682 159.148,99.3483 162.5,96.5C 173.008,94.0266 183.675,93.0266 194.5,93.5C 198.673,94.3576 203.007,95.0242 207.5,95.5C 207.5,94.5 207.5,93.5 207.5,92.5 Z"/></g>
<g><path style="opacity:1" fill="#e2f4ee" d="M 205.5,99.5 C 207.84,100.086 210.007,101.086 212,102.5C 214.19,111.425 212.69,119.759 207.5,127.5C 207.167,127.5 206.833,127.5 206.5,127.5C 206.5,126.833 206.5,126.167 206.5,125.5C 209.303,110.302 202.97,102.636 187.5,102.5C 179.295,101.213 170.962,101.213 162.5,102.5C 163.058,101.21 164.058,100.377 165.5,100C 178.836,96.9348 192.169,96.7681 205.5,99.5 Z"/></g>
<g><path style="opacity:1" fill="#e1f6ee" d="M 103.5,97.5 C 112.173,97.3336 120.84,97.5002 129.5,98C 134.994,98.8259 139.828,100.993 144,104.5C 144.643,110.627 143.976,116.627 142,122.5C 141.16,126.5 138.994,129.5 135.5,131.5C 137.372,124.96 137.872,118.294 137,111.5C 135.878,109.376 134.378,107.543 132.5,106C 118.854,100.873 105.187,100.373 91.5,104.5C 91.5106,102.983 92.1772,101.816 93.5,101C 97.0523,100.122 100.386,98.9558 103.5,97.5 Z"/></g>
<g><path style="opacity:1" fill="#c1f5dc" d="M 135.5,131.5 C 131.901,133.928 127.901,135.594 123.5,136.5C 102.363,137.698 91.363,127.698 90.5,106.5C 90.3284,105.508 90.6618,104.842 91.5,104.5C 105.187,100.373 118.854,100.873 132.5,106C 134.378,107.543 135.878,109.376 137,111.5C 137.872,118.294 137.372,124.96 135.5,131.5 Z"/></g>
<g><path style="opacity:1" fill="#0f3e37" d="M 122.5,109.5 C 129.182,108.373 132.682,111.04 133,117.5C 130.156,122.866 126.156,123.866 121,120.5C 118.689,116.374 119.189,112.707 122.5,109.5 Z"/></g>
<g><path style="opacity:1" fill="#d4dbd7" d="M 126.5,112.5 C 127.5,112.5 128.5,112.5 129.5,112.5C 129.5,113.833 129.5,115.167 129.5,116.5C 126.046,116.733 125.046,115.4 126.5,112.5 Z"/></g>
<g><path style="opacity:1" fill="#c2f2de" d="M 187.5,102.5 C 186.448,102.351 185.448,102.517 184.5,103C 184.833,103.333 185.167,103.667 185.5,104C 189.931,104.144 193.931,105.477 197.5,108C 197,108.5 196.5,109 196,109.5C 195.3,107.968 194.134,106.968 192.5,106.5C 191.088,107.806 189.421,108.64 187.5,109C 188.059,109.725 188.392,110.558 188.5,111.5C 185.908,114.958 184.575,118.624 184.5,122.5C 183.758,123.287 182.925,123.953 182,124.5C 176.547,122.355 172.047,123.521 168.5,128C 169.126,128.75 169.626,129.584 170,130.5C 173.678,130.687 177.511,131.187 181.5,132C 182,132.5 182.5,133 183,133.5C 185.405,133.036 187.905,132.869 190.5,133C 191.333,132.167 192.167,131.333 193,130.5C 194.525,130.888 196.192,130.888 198,130.5C 198.333,131.167 198.667,131.833 199,132.5C 201.37,129.961 203.87,127.628 206.5,125.5C 206.5,126.167 206.5,126.833 206.5,127.5C 205.04,129.463 203.373,131.296 201.5,133C 193.857,136.375 185.857,137.375 177.5,136C 171.75,134.992 167.25,132.159 164,127.5C 159.983,120.294 158.65,112.627 160,104.5C 160.417,103.244 161.25,102.577 162.5,102.5C 170.962,101.213 179.295,101.213 187.5,102.5 Z"/></g>
<g><path style="opacity:1" fill="#103c38" d="M 174.5,109.5 C 181.005,108.518 184.172,111.185 184,117.5C 182.287,122.038 179.12,123.538 174.5,122C 169.232,117.837 169.232,113.671 174.5,109.5 Z"/></g>
<g><path style="opacity:1" fill="#e3e8e4" d="M 174.5,112.5 C 176.912,112.694 177.912,114.027 177.5,116.5C 174.046,116.733 173.046,115.4 174.5,112.5 Z"/></g>
<g><path style="opacity:1" fill="#c2f8df" d="M 187.5,102.5 C 202.97,102.636 209.303,110.302 206.5,125.5C 203.87,127.628 201.37,129.961 199,132.5C 198.667,131.833 198.333,131.167 198,130.5C 196.192,130.888 194.525,130.888 193,130.5C 192.167,131.333 191.333,132.167 190.5,133C 187.905,132.869 185.405,133.036 183,133.5C 182.5,133 182,132.5 181.5,132C 177.511,131.187 173.678,130.687 170,130.5C 169.626,129.584 169.126,128.75 168.5,128C 172.047,123.521 176.547,122.355 182,124.5C 182.925,123.953 183.758,123.287 184.5,122.5C 184.575,118.624 185.908,114.958 188.5,111.5C 188.392,110.558 188.059,109.725 187.5,109C 189.421,108.64 191.088,107.806 192.5,106.5C 194.134,106.968 195.3,107.968 196,109.5C 196.5,109 197,108.5 197.5,108C 193.931,105.477 189.931,104.144 185.5,104C 185.167,103.667 184.833,103.333 184.5,103C 185.448,102.517 186.448,102.351 187.5,102.5 Z"/></g>
<g><path style="opacity:1" fill="#85e05c" d="M 196.5,145.5 C 195.175,144.047 194.342,144.381 194,146.5C 193.667,146.167 193.333,145.833 193,145.5C 190.017,146.917 186.85,147.75 183.5,148C 182.672,148.915 181.672,149.581 180.5,150C 181.86,151.938 181.527,153.604 179.5,155C 181.099,156.066 182.099,157.566 182.5,159.5C 181.738,159.911 180.738,160.077 179.5,160C 180.833,161 180.833,162 179.5,163C 181.85,164.613 184.183,165.446 186.5,165.5C 188.053,167.265 188.386,169.098 187.5,171C 188.384,172.72 189.717,173.886 191.5,174.5C 195.795,180.463 200.795,185.796 206.5,190.5C 196.469,191.069 188.302,187.403 182,179.5C 179.812,176.433 177.645,173.433 175.5,170.5C 175.5,169.833 175.5,169.167 175.5,168.5C 175.5,165.833 175.5,163.167 175.5,160.5C 172.393,160.826 170.06,159.659 168.5,157C 169.784,156.316 170.951,156.483 172,157.5C 172.333,156.5 172.667,155.5 173,154.5C 174.073,155.28 175.24,155.113 176.5,154C 173.389,152.492 170.389,151.492 167.5,151C 168.667,150.5 169.5,149.667 170,148.5C 170.667,151.167 171.333,151.167 172,148.5C 173.281,149.647 173.614,149.313 173,147.5C 172.25,146.874 171.416,146.374 170.5,146C 170.833,145.667 171.167,145.333 171.5,145C 170.256,144.544 169.423,145.044 169,146.5C 168.667,145.833 168.333,145.167 168,144.5C 167.333,145.833 166.667,145.833 166,144.5C 164.539,146.593 162.706,148.26 160.5,149.5C 160.631,148.624 160.298,147.957 159.5,147.5C 158.037,147.632 156.537,147.965 155,148.5C 152.028,147.026 148.861,146.026 145.5,145.5C 144.622,142.998 143.288,140.832 141.5,139C 142.167,138 142.833,137 143.5,136C 146.637,135.399 149.637,134.399 152.5,133C 151.399,130.708 152.232,129.208 155,128.5C 155.251,126.567 155.751,124.734 156.5,123C 154.91,118.64 153.744,114.14 153,109.5C 151.112,107.256 149.612,107.256 148.5,109.5C 148.5,108.5 148.5,107.5 148.5,106.5C 150.833,106.5 153.167,106.5 155.5,106.5C 154.634,117.564 157.967,127.064 165.5,135C 176.372,140.696 187.705,142.029 199.5,139C 198.086,140.993 197.086,143.16 196.5,145.5 Z"/></g>
<g><path style="opacity:1" fill="#83df59" d="M 160.5,149.5 C 160.918,150.222 161.584,150.722 162.5,151C 160.633,151.711 159.133,151.211 158,149.5C 156.385,151.011 156.385,152.344 158,153.5C 159.016,152.366 159.683,152.699 160,154.5C 160.333,153.833 160.667,153.167 161,152.5C 162,153.5 163,154.5 164,155.5C 166.984,153.293 167.15,153.793 164.5,157C 165.636,158.53 166.636,159.863 167.5,161C 165.806,162.728 164.639,162.228 164,159.5C 162.388,159.952 161.388,161.285 161,163.5C 159.16,162.167 158.66,162.334 159.5,164C 158.756,165.039 157.756,165.539 156.5,165.5C 155.833,166.5 155.167,167.5 154.5,168.5C 154.665,165.15 154.498,161.817 154,158.5C 152.951,157.483 151.784,157.316 150.5,158C 149.858,162.601 149.191,167.101 148.5,171.5C 148.657,170.127 148.49,168.793 148,167.5C 146.907,178.13 142.741,187.297 135.5,195C 131.89,196.382 128.556,197.882 125.5,199.5C 124.903,199.265 124.57,198.765 124.5,198C 130.47,187.33 133.47,175.83 133.5,163.5C 134.497,163.53 135.164,163.03 135.5,162C 136.649,159.811 137.315,157.811 137.5,156C 134.778,154.43 132.278,153.264 130,152.5C 126.04,153.073 123.04,155.407 121,159.5C 119.701,159.034 118.201,159.034 116.5,159.5C 115.167,159.5 113.833,159.5 112.5,159.5C 112.279,162.067 111.612,164.401 110.5,166.5C 110.565,166.062 110.399,165.728 110,165.5C 103.416,171.592 95.9157,173.759 87.5,172C 97.4115,166.423 104.912,158.59 110,148.5C 110.497,145.854 110.664,143.187 110.5,140.5C 114.167,140.5 117.833,140.5 121.5,140.5C 139.491,138.267 148.491,127.934 148.5,109.5C 149.612,107.256 151.112,107.256 153,109.5C 153.744,114.14 154.91,118.64 156.5,123C 155.751,124.734 155.251,126.567 155,128.5C 152.232,129.208 151.399,130.708 152.5,133C 149.637,134.399 146.637,135.399 143.5,136C 142.833,137 142.167,138 141.5,139C 143.288,140.832 144.622,142.998 145.5,145.5C 148.861,146.026 152.028,147.026 155,148.5C 156.537,147.965 158.037,147.632 159.5,147.5C 160.298,147.957 160.631,148.624 160.5,149.5 Z"/></g>
<g><path style="opacity:1" fill="#0f3f36" d="M 144.5,137.5 C 146.906,139.211 149.573,140.545 152.5,141.5C 155.169,140.148 157.836,138.814 160.5,137.5C 158.691,145.672 154.025,147.672 146.5,143.5C 144.914,141.827 144.247,139.827 144.5,137.5 Z"/></g>
<g><path style="opacity:1" fill="#8bdd60" d="M 204.5,140.5 C 207.512,144.502 211.512,146.002 216.5,145C 218.94,143.697 221.44,142.53 224,141.5C 225.642,141.978 226.809,142.978 227.5,144.5C 225.291,146.314 222.957,148.148 220.5,150C 214.694,153.377 209.027,153.21 203.5,149.5C 202.893,149.624 202.56,149.957 202.5,150.5C 200.797,148.149 200.297,145.482 201,142.5C 201.816,141.177 202.983,140.511 204.5,140.5 Z"/></g>
<g><path style="opacity:1" fill="#85df5e" d="M 196.5,145.5 C 196.826,148.311 197.659,150.978 199,153.5C 204.86,162.337 212.693,168.671 222.5,172.5C 211.768,175.109 202.268,172.775 194,165.5C 193.601,165.728 193.435,166.062 193.5,166.5C 192.388,164.401 191.721,162.067 191.5,159.5C 189.365,159.147 188.032,159.98 187.5,162C 188.701,166.229 190.034,170.396 191.5,174.5C 189.717,173.886 188.384,172.72 187.5,171C 188.386,169.098 188.053,167.265 186.5,165.5C 184.183,165.446 181.85,164.613 179.5,163C 180.833,162 180.833,161 179.5,160C 180.738,160.077 181.738,159.911 182.5,159.5C 182.099,157.566 181.099,156.066 179.5,155C 181.527,153.604 181.86,151.938 180.5,150C 181.672,149.581 182.672,148.915 183.5,148C 186.85,147.75 190.017,146.917 193,145.5C 193.333,145.833 193.667,146.167 194,146.5C 194.342,144.381 195.175,144.047 196.5,145.5 Z"/></g>
<g><path style="opacity:1" fill="#68c12f" d="M 227.5,144.5 C 227.278,147.504 226.278,150.171 224.5,152.5C 222.692,153.907 220.692,155.074 218.5,156C 211.223,159.293 205.89,157.459 202.5,150.5C 202.56,149.957 202.893,149.624 203.5,149.5C 209.027,153.21 214.694,153.377 220.5,150C 222.957,148.148 225.291,146.314 227.5,144.5 Z"/></g>
<g><path style="opacity:1" fill="#0a3732" d="M 90.5,106.5 C 91.363,127.698 102.363,137.698 123.5,136.5C 122.571,137.315 121.571,138.148 120.5,139C 121.056,139.383 121.389,139.883 121.5,140.5C 117.833,140.5 114.167,140.5 110.5,140.5C 108.572,139.464 106.572,138.964 104.5,139C 106.456,142.595 106.956,146.428 106,150.5C 101.215,161.482 93.0487,168.649 81.5,172C 78.6593,175.159 79.326,177.492 83.5,179C 92.3698,179.711 100.37,177.377 107.5,172C 109.16,170.512 110.16,168.679 110.5,166.5C 111.612,164.401 112.279,162.067 112.5,159.5C 113.833,159.5 115.167,159.5 116.5,159.5C 115.524,169.107 111.524,177.107 104.5,183.5C 103.912,181.795 103.579,180.128 103.5,178.5C 100.941,179.608 98.6076,180.941 96.5,182.5C 88.6736,186.004 81.8403,184.67 76,178.5C 75.3333,175.833 75.3333,173.167 76,170.5C 80.685,167.486 85.5183,164.653 90.5,162C 80.3074,161.092 73.9741,155.758 71.5,146C 72.4212,138.865 76.4212,136.199 83.5,138C 87.81,141.061 92.1434,141.228 96.5,138.5C 98.2517,138.582 99.2517,137.749 99.5,136C 98.5037,132.364 96.5037,128.864 93.5,125.5C 92.914,125.709 92.414,126.043 92,126.5C 88.0057,119.504 87.5057,112.837 90.5,106.5 Z"/></g>
<g><path style="opacity:1" fill="#67c12e" d="M 77.5,143.5 C 83.3353,151.761 91.002,153.761 100.5,149.5C 101.107,149.624 101.44,149.957 101.5,150.5C 99.3224,156.823 94.989,158.99 88.5,157C 82.22,155.716 78.22,152.05 76.5,146C 76.528,144.93 76.8614,144.097 77.5,143.5 Z"/></g>
<g><path style="opacity:1" fill="#8add5e" d="M 101.5,150.5 C 101.44,149.957 101.107,149.624 100.5,149.5C 91.002,153.761 83.3353,151.761 77.5,143.5C 77.8656,142.305 78.699,141.639 80,141.5C 87.6208,147.316 94.6208,146.649 101,139.5C 103.922,143.185 104.088,146.852 101.5,150.5 Z"/></g>
<g><path style="opacity:1" fill="#86e05e" d="M 175.5,168.5 C 175.018,165.954 174.018,163.621 172.5,161.5C 171.914,161.709 171.414,162.043 171,162.5C 170.719,172.812 172.385,182.812 176,192.5C 178.681,194.463 179.514,196.796 178.5,199.5C 169.465,197.312 163.298,191.645 160,182.5C 158.353,176.916 157.187,171.249 156.5,165.5C 157.756,165.539 158.756,165.039 159.5,164C 158.66,162.334 159.16,162.167 161,163.5C 161.388,161.285 162.388,159.952 164,159.5C 164.639,162.228 165.806,162.728 167.5,161C 166.636,159.863 165.636,158.53 164.5,157C 167.15,153.793 166.984,153.293 164,155.5C 163,154.5 162,153.5 161,152.5C 160.667,153.167 160.333,153.833 160,154.5C 159.683,152.699 159.016,152.366 158,153.5C 156.385,152.344 156.385,151.011 158,149.5C 159.133,151.211 160.633,151.711 162.5,151C 161.584,150.722 160.918,150.222 160.5,149.5C 162.706,148.26 164.539,146.593 166,144.5C 166.667,145.833 167.333,145.833 168,144.5C 168.333,145.167 168.667,145.833 169,146.5C 169.423,145.044 170.256,144.544 171.5,145C 171.167,145.333 170.833,145.667 170.5,146C 171.416,146.374 172.25,146.874 173,147.5C 173.614,149.313 173.281,149.647 172,148.5C 171.333,151.167 170.667,151.167 170,148.5C 169.5,149.667 168.667,150.5 167.5,151C 170.389,151.492 173.389,152.492 176.5,154C 175.24,155.113 174.073,155.28 173,154.5C 172.667,155.5 172.333,156.5 172,157.5C 170.951,156.483 169.784,156.316 168.5,157C 170.06,159.659 172.393,160.826 175.5,160.5C 175.5,163.167 175.5,165.833 175.5,168.5 Z"/></g>
<g><path style="opacity:1" fill="#85dd5c" d="M 133.5,163.5 C 132.745,161.534 131.579,161.2 130,162.5C 129.433,165.168 128.933,167.834 128.5,170.5C 123.546,179.617 116.213,186.117 106.5,190C 103.739,190.722 101.073,190.555 98.5,189.5C 99.973,187.605 101.64,185.939 103.5,184.5C 104.167,184.5 104.5,184.167 104.5,183.5C 111.524,177.107 115.524,169.107 116.5,159.5C 118.201,159.034 119.701,159.034 121,159.5C 123.04,155.407 126.04,153.073 130,152.5C 132.278,153.264 134.778,154.43 137.5,156C 137.315,157.811 136.649,159.811 135.5,162C 135.164,163.03 134.497,163.53 133.5,163.5 Z"/></g>
<g><path style="opacity:1" fill="#6ac530" d="M 110.5,140.5 C 110.664,143.187 110.497,145.854 110,148.5C 104.912,158.59 97.4115,166.423 87.5,172C 95.9157,173.759 103.416,171.592 110,165.5C 110.399,165.728 110.565,166.062 110.5,166.5C 110.16,168.679 109.16,170.512 107.5,172C 100.37,177.377 92.3698,179.711 83.5,179C 79.326,177.492 78.6593,175.159 81.5,172C 93.0487,168.649 101.215,161.482 106,150.5C 106.956,146.428 106.456,142.595 104.5,139C 106.572,138.964 108.572,139.464 110.5,140.5 Z"/></g>
<g><path style="opacity:1" fill="#6bc432" d="M 222.5,172.5 C 223.695,172.866 224.361,173.699 224.5,175C 223.249,177.303 221.249,178.636 218.5,179C 210.291,179.57 202.958,177.236 196.5,172C 194.393,170.736 193.393,168.903 193.5,166.5C 193.435,166.062 193.601,165.728 194,165.5C 202.268,172.775 211.768,175.109 222.5,172.5 Z"/></g>
<g><path style="opacity:1" fill="#67c32f" d="M 128.5,170.5 C 126.047,179.79 120.713,186.956 112.5,192C 108.07,194.27 103.403,194.937 98.5,194C 97.1991,192.384 97.1991,190.884 98.5,189.5C 101.073,190.555 103.739,190.722 106.5,190C 116.213,186.117 123.546,179.617 128.5,170.5 Z"/></g>
<g><path style="opacity:1" fill="#0a211e" d="M 104.5,183.5 C 104.5,184.167 104.167,184.5 103.5,184.5C 102.417,184.461 101.417,184.127 100.5,183.5C 99.6667,184.5 98.8333,185.5 98,186.5C 97.6667,186.167 97.3333,185.833 97,185.5C 92.5626,188.977 92.3959,192.643 96.5,196.5C 99.2821,197.516 101.949,198.516 104.5,199.5C 96.1212,200.285 92.2879,196.619 93,188.5C 94.1667,186 96,184.167 98.5,183C 97.9056,182.536 97.2389,182.369 96.5,182.5C 98.6076,180.941 100.941,179.608 103.5,178.5C 103.579,180.128 103.912,181.795 104.5,183.5 Z"/></g>
<g><path style="opacity:1" fill="#69c42e" d="M 175.5,170.5 C 177.645,173.433 179.812,176.433 182,179.5C 188.302,187.403 196.469,191.069 206.5,190.5C 206.64,192.124 205.973,193.29 204.5,194C 201.112,194.659 197.779,194.492 194.5,193.5C 184.145,189.108 177.812,181.441 175.5,170.5 Z"/></g>
<g><path style="opacity:1" fill="#0a3731" d="M 154.5,168.5 C 154.991,177.47 157.491,185.803 162,193.5C 165.426,197.71 169.759,200.376 175,201.5C 176.699,201.613 177.866,200.947 178.5,199.5C 179.514,196.796 178.681,194.463 176,192.5C 172.385,182.812 170.719,172.812 171,162.5C 171.414,162.043 171.914,161.709 172.5,161.5C 174.018,163.621 175.018,165.954 175.5,168.5C 175.5,169.167 175.5,169.833 175.5,170.5C 177.812,181.441 184.145,189.108 194.5,193.5C 194.539,194.583 194.873,195.583 195.5,196.5C 200.285,198.815 204.951,198.482 209.5,195.5C 208.878,197.335 207.544,198.502 205.5,199C 196.682,200.005 189.015,197.505 182.5,191.5C 182.167,191.667 181.833,191.833 181.5,192C 185.821,199.535 183.655,204.368 175,206.5C 161.819,203.317 154.153,194.983 152,181.5C 149.819,195.18 141.986,203.514 128.5,206.5C 123.356,205.854 120.356,203.021 119.5,198C 120.28,195.321 121.113,192.821 122,190.5C 117.181,195.489 111.348,198.489 104.5,199.5C 101.949,198.516 99.2821,197.516 96.5,196.5C 92.3959,192.643 92.5626,188.977 97,185.5C 97.3333,185.833 97.6667,186.167 98,186.5C 98.8333,185.5 99.6667,184.5 100.5,183.5C 101.417,184.127 102.417,184.461 103.5,184.5C 101.64,185.939 99.973,187.605 98.5,189.5C 97.1991,190.884 97.1991,192.384 98.5,194C 103.403,194.937 108.07,194.27 112.5,192C 120.713,186.956 126.047,179.79 128.5,170.5C 128.933,167.834 129.433,165.168 130,162.5C 131.579,161.2 132.745,161.534 133.5,163.5C 133.47,175.83 130.47,187.33 124.5,198C 124.57,198.765 124.903,199.265 125.5,199.5C 127.119,201.238 129.119,201.738 131.5,201C 140.342,197.485 145.508,190.985 147,181.5C 148.043,178.243 148.543,174.91 148.5,171.5C 149.191,167.101 149.858,162.601 150.5,158C 151.784,157.316 152.951,157.483 154,158.5C 154.498,161.817 154.665,165.15 154.5,168.5 Z"/></g>
<g><path style="opacity:1" fill="#64c22e" d="M 148.5,171.5 C 148.543,174.91 148.043,178.243 147,181.5C 145.508,190.985 140.342,197.485 131.5,201C 129.119,201.738 127.119,201.238 125.5,199.5C 128.556,197.882 131.89,196.382 135.5,195C 142.741,187.297 146.907,178.13 148,167.5C 148.49,168.793 148.657,170.127 148.5,171.5 Z"/></g>
<g><path style="opacity:1" fill="#63bf2d" d="M 156.5,165.5 C 157.187,171.249 158.353,176.916 160,182.5C 163.298,191.645 169.465,197.312 178.5,199.5C 177.866,200.947 176.699,201.613 175,201.5C 169.759,200.376 165.426,197.71 162,193.5C 157.491,185.803 154.991,177.47 154.5,168.5C 155.167,167.5 155.833,166.5 156.5,165.5 Z"/></g>
<g><path style="opacity:1" fill="#003b3a" d="M 156.5,225.5 C 156.814,233.087 156.481,240.587 155.5,248C 152.975,248.896 150.808,248.396 149,246.5C 148.826,241.316 148.326,236.316 147.5,231.5C 147.5,230.833 147.5,230.167 147.5,229.5C 145.355,228.022 143.021,226.688 140.5,225.5C 142.936,221.92 146.27,220.754 150.5,222C 152.887,222.564 154.887,223.73 156.5,225.5 Z"/></g>
<g><path style="opacity:1" fill="#043433" d="M 170.5,220.5 C 186.307,219.134 192.807,226.134 190,241.5C 184.942,249.743 177.775,252.243 168.5,249C 160.934,243.966 158.767,237.133 162,228.5C 164.098,224.897 166.932,222.23 170.5,220.5 Z M 173.5,228.5 C 180.109,229.258 182.276,232.925 180,239.5C 177.333,243.5 174.667,243.5 172,239.5C 170.389,235.591 170.889,231.924 173.5,228.5 Z"/></g>
<g><path style="opacity:1" fill="#043332" d="M 212.5,221.5 C 215.4,222.928 216.067,225.094 214.5,228C 213.552,228.483 212.552,228.649 211.5,228.5C 204.686,227.813 201.853,230.813 203,237.5C 205.676,242.869 209.509,243.869 214.5,240.5C 218.471,243.19 218.471,246.023 214.5,249C 198.966,252.462 191.799,246.296 193,230.5C 196.78,221.628 203.28,218.628 212.5,221.5 Z"/></g>
<g><path style="opacity:1" fill="#043433" d="M 247.5,220.5 C 261.664,218.332 267.997,224.332 266.5,238.5C 266.482,242.084 266.148,245.584 265.5,249C 262.331,249.978 259.497,249.478 257,247.5C 251.361,251.77 246.027,251.437 241,246.5C 237.961,239.271 240.128,234.438 247.5,232C 250.226,231.818 252.893,231.318 255.5,230.5C 252.013,227.976 248.346,227.976 244.5,230.5C 242.275,229.054 241.442,227.054 242,224.5C 243.456,222.535 245.29,221.201 247.5,220.5 Z M 251.5,237.5 C 252.833,237.5 254.167,237.5 255.5,237.5C 256.167,241.5 254.5,243.167 250.5,242.5C 250.366,240.708 250.699,239.042 251.5,237.5 Z"/></g>
<g><path style="opacity:1" fill="#053433" d="M 110.5,220.5 C 118.41,219.064 124.243,221.731 128,228.5C 128.667,231.167 128.667,233.833 128,236.5C 127.25,237.126 126.416,237.626 125.5,238C 120.798,238.172 116.132,238.672 111.5,239.5C 113.063,241.402 115.063,242.402 117.5,242.5C 120.171,241.643 122.837,241.143 125.5,241C 128.003,246.848 126.003,249.848 119.5,250C 104.941,250.773 98.7744,243.94 101,229.5C 103.294,225.461 106.461,222.461 110.5,220.5 Z M 112.5,228.5 C 114.977,228.051 116.977,228.717 118.5,230.5C 116.167,231.833 113.833,231.833 111.5,230.5C 111.863,229.817 112.196,229.15 112.5,228.5 Z"/></g>
<g><path style="opacity:1" fill="#033635" d="M 92.5,247.5 C 88.8694,248.412 85.2027,248.579 81.5,248C 80.7069,246.915 80.0402,245.748 79.5,244.5C 81.6309,243.831 83.6309,243.165 85.5,242.5C 88.2202,239.322 89.0536,235.655 88,231.5C 85.7253,228.126 83.2253,227.793 80.5,230.5C 79.074,231.802 77.7407,233.302 76.5,235C 76.7762,237.609 76.7762,240.276 76.5,243C 77.1667,243.333 77.8333,243.667 78.5,244C 76.2387,245.813 73.9053,247.313 71.5,248.5C 71.5,239.833 71.5,231.167 71.5,222.5C 73.8333,222.5 76.1667,222.5 78.5,222.5C 92.4328,217.879 99.2661,222.879 99,237.5C 98.9123,242.364 96.7456,245.697 92.5,247.5 Z M 85.5,242.5 C 83.8561,242.714 82.3561,242.38 81,241.5C 80.5014,237.848 80.3347,234.182 80.5,230.5C 83.2253,227.793 85.7253,228.126 88,231.5C 89.0536,235.655 88.2202,239.322 85.5,242.5 Z"/></g>
<g><path style="opacity:1" fill="#081718" d="M 232.5,229.5 C 236.759,229.22 238.426,226.886 237.5,222.5C 235.167,222.5 232.833,222.5 230.5,222.5C 231.833,216.5 229.5,214.167 223.5,215.5C 223.5,217.833 223.5,220.167 223.5,222.5C 219.932,222.759 218.599,224.759 219.5,228.5C 220.5,228.5 221.5,228.5 222.5,228.5C 222.283,234.232 222.783,239.899 224,245.5C 226.264,246.851 228.098,248.517 229.5,250.5C 226.13,249.568 223.63,247.568 222,244.5C 221.501,239.511 221.334,234.511 221.5,229.5C 220.5,229.5 219.5,229.5 218.5,229.5C 218.719,228.325 218.386,227.325 217.5,226.5C 216.05,230.268 214.05,230.935 211.5,228.5C 212.552,228.649 213.552,228.483 214.5,228C 216.067,225.094 215.4,222.928 212.5,221.5C 214.912,221.244 216.579,222.244 217.5,224.5C 220.415,222.28 221.915,219.28 222,215.5C 225,214.167 228,214.167 231,215.5C 231.495,217.473 231.662,219.473 231.5,221.5C 233.833,221.5 236.167,221.5 238.5,221.5C 238.663,223.857 238.497,226.19 238,228.5C 236.301,229.406 234.467,229.739 232.5,229.5 Z"/></g>
<g><path style="opacity:1" fill="#053332" d="M 46.5,220.5 C 64.469,219.445 70.6356,227.445 65,244.5C 57.8727,251.326 50.0393,252.159 41.5,247C 36.2209,240.715 35.3876,233.881 39,226.5C 41.1141,223.879 43.6141,221.879 46.5,220.5 Z M 49.5,228.5 C 54.4015,227.901 57.0682,230.067 57.5,235C 57.2364,238.708 55.4031,241.208 52,242.5C 47.8587,239.992 46.5254,236.326 48,231.5C 48.5133,230.473 49.0133,229.473 49.5,228.5 Z"/></g>
<g><path style="opacity:1" fill="#023938" d="M 232.5,229.5 C 231.357,232.976 231.19,236.642 232,240.5C 232.667,241.167 233.333,241.833 234,242.5C 235.356,241.62 236.856,241.286 238.5,241.5C 239.377,248.246 236.377,251.246 229.5,250.5C 228.098,248.517 226.264,246.851 224,245.5C 222.783,239.899 222.283,234.232 222.5,228.5C 221.5,228.5 220.5,228.5 219.5,228.5C 218.599,224.759 219.932,222.759 223.5,222.5C 223.5,220.167 223.5,217.833 223.5,215.5C 229.5,214.167 231.833,216.5 230.5,222.5C 232.833,222.5 235.167,222.5 237.5,222.5C 238.426,226.886 236.759,229.22 232.5,229.5 Z"/></g>
<g><path style="opacity:1" fill="#003d3b" d="M 136.5,220.5 C 136.577,221.75 137.244,222.583 138.5,223C 135.117,225.877 135.117,229.044 138.5,232.5C 139.833,237.5 139.833,242.5 138.5,247.5C 136.618,246.907 134.785,246.24 133,245.5C 132.2,237.421 132.367,229.421 133.5,221.5C 134.391,220.89 135.391,220.557 136.5,220.5 Z"/></g>
<g><path style="opacity:1" fill="#122626" d="M 156.5,225.5 C 157.268,226.263 157.768,227.263 158,228.5C 158.811,235.414 158.645,242.248 157.5,249C 154.007,250.004 150.841,249.504 148,247.5C 147.501,242.177 147.334,236.844 147.5,231.5C 148.326,236.316 148.826,241.316 149,246.5C 150.808,248.396 152.975,248.896 155.5,248C 156.481,240.587 156.814,233.087 156.5,225.5 Z"/></g>
<g><path style="opacity:1" fill="#082b2b" d="M 78.5,222.5 C 76.1667,222.5 73.8333,222.5 71.5,222.5C 71.5,231.167 71.5,239.833 71.5,248.5C 73.9053,247.313 76.2387,245.813 78.5,244C 77.8333,243.667 77.1667,243.333 76.5,243C 76.7762,240.276 76.7762,237.609 76.5,235C 77.7407,233.302 79.074,231.802 80.5,230.5C 80.3347,234.182 80.5014,237.848 81,241.5C 82.3561,242.38 83.8561,242.714 85.5,242.5C 83.6309,243.165 81.6309,243.831 79.5,244.5C 80.0402,245.748 80.7069,246.915 81.5,248C 85.2027,248.579 88.8694,248.412 92.5,247.5C 90.8413,249.343 88.6746,250.343 86,250.5C 84.175,250.057 82.3417,249.723 80.5,249.5C 80.8174,252.572 80.4841,255.572 79.5,258.5C 75.7787,260.243 72.6121,259.576 70,256.5C 69.3333,245.167 69.3333,233.833 70,222.5C 72.997,220.071 75.8303,220.071 78.5,222.5 Z"/></g>
<g><path style="opacity:1" fill="#072626" d="M 136.5,220.5 C 138.743,222.638 141.076,222.804 143.5,221C 147.261,220.262 150.928,220.595 154.5,222C 155.823,222.816 156.489,223.983 156.5,225.5C 154.887,223.73 152.887,222.564 150.5,222C 146.27,220.754 142.936,221.92 140.5,225.5C 143.021,226.688 145.355,228.022 147.5,229.5C 145.609,228.464 143.776,228.464 142,229.5C 141.667,235.833 141.333,242.167 141,248.5C 137.435,250.053 134.101,249.72 131,247.5C 130.5,238.84 130.334,230.173 130.5,221.5C 131.5,221.5 132.5,221.5 133.5,221.5C 132.367,229.421 132.2,237.421 133,245.5C 134.785,246.24 136.618,246.907 138.5,247.5C 139.833,242.5 139.833,237.5 138.5,232.5C 135.117,229.044 135.117,225.877 138.5,223C 137.244,222.583 136.577,221.75 136.5,220.5 Z"/></g>
</svg>
